:SAMPLES-PER-SECOND 30
:FULLY-SPECIFIED
:DEGREES
502
root  37.0382 21.1451 -5.57589 -51.2534 70.1375 -71.548
RightUpLeg  -18.7795 5.40427 7.12771
RightLeg  99.7832 3.70884 -15.6761
RightFoot  0.799476 -0.253849 2.37816
RightToes  -1.33073e-015 0 -3.6325e-017
Spine  49.7331 -2.57123 -3.19541
Spine1  -7.34166 -3.92538 5.49465
HEad  -58.2295 13.2928 -15.8765
LeftShoulder1  11.7053 -22.7459 -38.3208
LeftArm  -10.7042 -39.2727 -10.4789
LeftForeArm  51.0805 3.33195 -9.86663
LeftHand  -0.244104 0.0205437 5.32207
RightShoulder  8.1164 14.6211 38.6845
RightArm  18.8535 0.798555 33.7709
RightForeArm  1.05415 40.8772 9.6288
RightHand  -11.2132 24.015 -42.4354
LeftUpLeg  -38.1867 15.8855 11.3379
LeftLeg  118.2 -6.73455 10.8689
LeftFoot  13.7056 -0.328372 1.11416
LeftToes  -7.82198e-011 2.46994e-011 -7.94165e-012
503
root  37.3347 21.4913 -5.93205 -49.4788 67.558 -69.1643
RightUpLeg  -24.2776 5.81026 6.43478
RightLeg  104.49 5.53384 -16.8916
RightFoot  -3.28814 -0.0440187 0.326476
RightToes  -1.33073e-015 0 -3.6325e-017
Spine  49.3459 -2.64126 -1.92357
Spine1  -7.15677 -3.39641 5.77991
HEad  -58.3552 14.7391 -17.3309
LeftShoulder1  11.7005 -22.0527 -39.4712
LeftArm  -10.2816 -37.6251 -10.1052
LeftForeArm  49.7557 2.66528 -9.87153
LeftHand  -0.244104 0.0205437 5.32207
RightShoulder  7.91566 14.4786 37.955
RightArm  18.0013 -5.31015 31.5079
RightForeArm  -2.01989 38.9117 9.17261
RightHand  -10.0795 22.2491 -40.7823
LeftUpLeg  -35.8947 16.6469 13.0615
LeftLeg  117.663 -6.51971 10.7443
LeftFoot  10.2866 -0.615721 2.88991
LeftToes  -7.82198e-011 2.46994e-011 -7.94165e-012
504
root  37.5263 21.7943 -6.28714 -48.219 65.2408 -66.7447
RightUpLeg  -31.285 5.44365 5.11794
RightLeg  110.099 7.80609 -17.6731
RightFoot  -8.70648 -0.0474967 -0.397362
RightToes  -1.33073e-015 0 -3.6325e-017
Spine  49.7262 -2.75847 -0.646405
Spine1  -6.81043 -3.03358 6.26033
HEad  -58.3426 16.386 -18.9127
LeftShoulder1  11.5985 -21.5078 -40.0416
LeftArm  -10.2013 -35.9414 -9.96816
LeftForeArm  48.744 2.01172 -9.6503
LeftHand  -0.244104 0.0205437 5.32207
RightShoulder  7.70253 14.3362 37.1405
RightArm  18.7882 -10.0812 29.2344
RightForeArm  -6.53217 35.4958 8.38409
RightHand  -9.13968 20.6716 -39.3732
LeftUpLeg  -33.3734 17.2383 14.7245
LeftLeg  117.388 -6.67959 11.1327
LeftFoot  6.76398 -0.634034 3.71212
LeftToes  -7.82198e-011 2.46994e-011 -7.94165e-012
505
root  37.6394 22.0389 -6.61906 -48.5601 63.6048 -65.1029
RightUpLeg  -39.0668 3.97698 3.77206
RightLeg  115.46 9.26293 -16.5003
RightFoot  -13.0603 -0.0965398 -0.588035
RightToes  -1.33073e-015 0 -3.6325e-017
Spine  50.9151 -3.16472 0.557364
Spine1  -6.19038 -3.10891 7.06851
HEad  -57.9986 18.2923 -20.33
LeftShoulder1  11.4319 -21.1177 -40.1035
LeftArm  -10.4615 -34.3866 -10.1242
LeftForeArm  47.6228 1.73975 -9.26711
LeftHand  -0.244104 0.0205437 5.32207
RightShoulder  7.48881 14.1365 36.4403
RightArm  20.8094 -13.7035 26.8834
RightForeArm  -11.404 31.5478 7.53715
RightHand  -8.38383 19.3643 -38.1465
LeftUpLeg  -30.6504 17.2014 16.1443
LeftLeg  117.626 -6.23538 10.2783
LeftFoot  3.23761 -0.463347 3.4494
LeftToes  -7.82198e-011 2.46994e-011 -7.94165e-012
506
root  37.7475 22.2723 -6.89075 -49.1028 62.5417 -63.2045
RightUpLeg  -47.9015 1.6755 3.15307
RightLeg  119.395 9.77684 -14.8673
RightFoot  -15.5988 -0.12595 -0.544836
RightToes  -1.33073e-015 0 -3.6325e-017
Spine  52.4285 -3.58744 1.45401
Spine1  -5.27042 -3.42915 7.74547
HEad  -57.5763 20.4484 -21.3143
LeftShoulder1  11.2493 -20.7796 -40.0096
LeftArm  -10.9616 -33.3238 -10.2007
LeftForeArm  46.1046 1.7675 -8.89578
LeftHand  -0.244104 0.0205437 5.32207
RightShoulder  7.3499 13.9891 36.016
RightArm  22.6219 -16.6964 24.5368
RightForeArm  -14.4138 27.8637 6.73933
RightHand  -7.78426 18.3648 -37.0157
LeftUpLeg  -27.734 17.0819 17.008
LeftLeg  118.193 -5.36749 8.59575
LeftFoot  -0.71418 -0.184175 1.98751
LeftToes  -7.82198e-011 2.46994e-011 -7.94165e-012
507
root  37.8882 22.4983 -7.03095 -49.0161 62.0788 -60.6507
RightUpLeg  -57.0342 -1.04157 4.14115
RightLeg  120.652 9.82453 -14.2542
RightFoot  -17.3791 -0.119694 -0.0506858
RightToes  -1.33073e-015 0 -3.6325e-017
Spine  53.8766 -3.6204 1.70761
Spine1  -4.25489 -3.78323 8.48233
HEad  -57.3602 22.5322 -21.9825
LeftShoulder1  11.2124 -20.4413 -40.4895
LeftArm  -11.7318 -32.7768 -9.74517
LeftForeArm  44.4599 1.70164 -8.57605
LeftHand  -0.244104 0.0205437 5.32207
RightShoulder  7.2129 13.911 35.4292
RightArm  23.2346 -19.4629 22.5866
RightForeArm  -15.0082 24.7699 6.05061
RightHand  -7.39778 17.7379 -36.2024
LeftUpLeg  -24.749 17.3186 17.2092
LeftLeg  118.7 -5.03283 7.86781
LeftFoot  -4.5533 0.0401071 -0.208612
LeftToes  -7.82198e-011 2.46994e-011 -7.94165e-012
508
root  38.0678 22.712 -7.02708 -49.2031 62.0629 -58.6624
RightUpLeg  -65.0078 -3.60753 7.35657
RightLeg  118.754 9.01408 -14.057
RightFoot  -19.3634 -0.0168917 1.57868
RightToes  -1.33073e-015 0 -3.6325e-017
Spine  55.1128 -3.46397 1.8256
Spine1  -3.35169 -4.12231 9.68514
HEad  -57.5037 24.1597 -22.5613
LeftShoulder1  11.3376 -20.0903 -41.6479
LeftArm  -12.8035 -32.4192 -9.12793
LeftForeArm  43.2213 1.36901 -8.16631
LeftHand  -0.244104 0.0205437 5.32207
RightShoulder  6.93105 13.7312 34.2452
RightArm  22.5961 -22.129 21.28
RightForeArm  -14.4876 22.5701 5.74096
RightHand  -7.06488 17.1205 -35.5731
LeftUpLeg  -21.999 17.5845 17.3444
LeftLeg  118.796 -5.09556 7.9427
LeftFoot  -7.46675 0.121793 -2.21465
LeftToes  -7.82198e-011 2.46994e-011 -7.94165e-012
509
root  38.2703 22.9318 -6.92549 -50.2172 62.4142 -58.0321
RightUpLeg  -71.6261 -5.75391 12.3734
RightLeg  113.783 6.96108 -13.2551
RightFoot  -20.8317 0.221767 4.40594
RightToes  -1.33073e-015 0 -3.6325e-017
Spine  56.0317 -3.59278 2.31669
Spine1  -2.67866 -4.57094 10.8049
HEad  -57.9363 25.3647 -22.6312
LeftShoulder1  11.3659 -19.8494 -42.2269
LeftArm  -13.6123 -31.7318 -9.4807
LeftForeArm  42.5121 1.06883 -7.66794
LeftHand  -0.244104 0.0205437 5.32207
RightShoulder  6.67845 13.389 33.575
RightArm  21.5374 -24.606 19.7863
RightForeArm  -14.2402 21.7849 5.86849
RightHand  -6.57479 16.1399 -34.6841
LeftUpLeg  -19.7652 17.3912 17.6689
LeftLeg  118.101 -4.49669 7.14427
LeftFoot  -9.32559 0.127196 -4.04026
LeftToes  -7.82198e-011 2.46994e-011 -7.94165e-012
